SplineFontDB: 3.2
FontName: Tanbo-Regular
FullName: Tanbo Regular
FamilyName: Tanbo
Weight: Regular
Copyright: Copyright 2018 The Roboto Slab Project Authors (https://github.com/googlefonts/robotoslab)\n\nModified into Tanbo for Lojban/Zbalermorna in 2020 by Jack Humbert.
Version: 2.000
ItalicAngle: 0
UnderlinePosition: -251
UnderlineWidth: 43
Ascent: 750
Descent: 250
InvalidEm: 0
sfntRevision: 0x00020000
LayerCount: 2
Layer: 0 0 "Back" 1
Layer: 1 0 "Fore" 0
XUID: [1021 647 -312734098 17743]
StyleMap: 0x0040
FSType: 0
OS2Version: 4
OS2_WeightWidthSlopeOnly: 0
OS2_UseTypoMetrics: 0
CreationTime: 1438840825
ModificationTime: 1589914791
PfmFamily: 33
TTFWeight: 400
TTFWidth: 5
LineGap: 0
VLineGap: 0
Panose: 2 15 5 2 2 2 4 3 2 3
OS2TypoAscent: 750
OS2TypoAOffset: 0
OS2TypoDescent: -250
OS2TypoDOffset: 0
OS2TypoLinegap: 198
OS2WinAscent: 816
OS2WinAOffset: 0
OS2WinDescent: 313
OS2WinDOffset: 0
HheadAscent: 750
HheadAOffset: 0
HheadDescent: -250
HheadDOffset: 0
OS2SubXSize: 692
OS2SubYSize: 642
OS2SubXOff: 0
OS2SubYOff: 138
OS2SupXSize: 692
OS2SupYSize: 642
OS2SupXOff: 0
OS2SupYOff: 471
OS2StrikeYSize: 44
OS2StrikeYPos: 272
OS2CapHeight: 750
OS2XHeight: 500
OS2Vendor: 'JH  '
OS2CodePages: 2002019f.00000000
OS2UnicodeRanges: 80000001.10000002.00000000.00000000
Lookup: 4 0 1 "zlmFF" { "zlmFF subtable"  } ['liga' ('latn' <'dflt' > 'DFLT' <'dflt' > ) ]
Lookup: 4 0 1 "zlmSFF" { "zlmSFF subtable"  } ['liga' ('latn' <'dflt' > 'DFLT' <'dflt' > ) ]
Lookup: 4 0 1 "zlmSF" { "zlmSF subtable"  } ['liga' ('latn' <'dflt' > 'DFLT' <'dflt' > ) ]

StartChar: exclam
Encoding: 1 33 1
Width: 235
Flags: HW
LayerCount: 2
Fore
SplineSet
70 233 m 1
 70 711 l 1
 166 711 l 1
 166 233 l 1
 70 233 l 1
70 0 m 1
 70 100 l 1
 166 100 l 1
 166 0 l 1
 70 0 l 1
EndSplineSet
EndChar

StartChar: question
Encoding: 13 63 2
Width: 465
Flags: HW
LayerCount: 2
Fore
SplineSet
176 200 m 1
 176 224 176 244 178 259 c 128
 180 274 183 287 188 298 c 128
 193 309 200 321 210 332 c 128
 220 343 232 356 249 371 c 0
 272 392 290 411 303 429 c 128
 316 447 325 464 330 481 c 128
 335 498 338 515 338 533 c 0
 338 568 328 594 310 612 c 128
 292 630 266 640 232 640 c 0
 203 640 177 632 156 616 c 128
 135 600 125 576 125 545 c 1
 34 545 l 1
 32 548 l 1
 31 583 40 613 57 639 c 128
 74 665 98 686 128 700 c 128
 158 714 193 721 232 721 c 0
 296 721 346 705 382 672 c 128
 418 639 435 594 435 535 c 0
 435 507 430 481 421 458 c 128
 412 435 398 413 379 390 c 128
 360 367 337 341 309 313 c 0
 298 301 289 290 284 281 c 128
 279 272 275 260 274 248 c 128
 273 236 272 220 272 200 c 1
 176 200 l 1
175 0 m 1
 175 102 l 1
 275 102 l 1
 275 0 l 1
 175 0 l 1
EndSplineSet
EndChar

StartChar: semicolon
Encoding: 10 59 3
Width: 207
Flags: HW
HStem: 430 99<71 167>
VStem: 71 96<-64.6543 108 430 529>
LayerCount: 2
Fore
SplineSet
80 -152 m 1
 26 -116 l 1
 41 -93 53 -69 61 -44 c 0
 69 -19 73 7 73 34 c 2
 73 108 l 1
 169 108 l 1
 169 35 l 2
 169 3 161 -30 145 -65 c 0
 129 -100 107 -129 80 -152 c 1
71 430 m 1
 71 529 l 1
 167 529 l 1
 167 430 l 1
 71 430 l 1
EndSplineSet
EndChar

StartChar: colon
Encoding: 9 58 4
Width: 204
Flags: HW
HStem: 0 99<71 167> 430 99<71 167>
VStem: 71 96<0 99 430 529>
LayerCount: 2
Fore
SplineSet
71 430 m 1
 71 529 l 1
 167 529 l 1
 167 430 l 1
 71 430 l 1
71 0 m 1
 71 99 l 1
 167 99 l 1
 167 0 l 1
 71 0 l 1
EndSplineSet
EndChar

StartChar: guillemotleft
Encoding: 18 171 5
Width: 456
Flags: HW
LayerCount: 2
Fore
SplineSet
335 57 m 1
 191 247 l 1
 191 256 l 1
 335 446 l 1
 408 446 l 1
 283 252 l 1
 408 57 l 1
 335 57 l 1
172 57 m 1
 28 247 l 1
 28 256 l 1
 172 446 l 1
 245 446 l 1
 120 252 l 1
 245 57 l 1
 172 57 l 1
EndSplineSet
EndChar

StartChar: guillemotright
Encoding: 19 187 6
Width: 458
Flags: HW
LayerCount: 2
Fore
SplineSet
220 74 m 1
 344 269 l 1
 220 463 l 1
 292 463 l 1
 436 273 l 1
 436 264 l 1
 292 74 l 1
 220 74 l 1
52 74 m 1
 176 269 l 1
 52 463 l 1
 124 463 l 1
 268 273 l 1
 268 264 l 1
 124 74 l 1
 52 74 l 1
EndSplineSet
EndChar

StartChar: parenleft
Encoding: 7 40 7
Width: 323
Flags: HW
LayerCount: 2
Fore
SplineSet
296 -226 m 1
 268 -211 240 -188 211 -157 c 128
 182 -126 156 -89 133 -45 c 128
 110 -1 91 48 77 104 c 128
 63 160 56 220 56 284 c 2
 56 289 l 2
 56 353 63 413 77 468 c 128
 91 523 110 574 133 618 c 128
 156 662 182 699 211 730 c 128
 240 761 268 784 296 799 c 1
 299 798 l 1
 317 742 l 1
 294 725 274 702 254 674 c 128
 234 646 216 612 201 574 c 128
 186 536 174 493 165 446 c 128
 156 399 152 347 152 290 c 2
 152 283 l 2
 152 226 156 174 165 127 c 128
 174 80 186 36 201 -2 c 128
 216 -40 234 -73 254 -102 c 128
 274 -131 295 -154 317 -173 c 1
 299 -226 l 1
 296 -226 l 1
EndSplineSet
EndChar

StartChar: parenright
Encoding: 8 41 8
Width: 319
Flags: HW
LayerCount: 2
Fore
SplineSet
23 -226 m 1
 5 -173 l 1
 27 -156 48 -132 68 -104 c 128
 88 -76 106 -42 121 -4 c 128
 136 34 149 78 158 126 c 128
 167 174 171 226 171 283 c 2
 171 290 l 2
 171 345 166 397 157 445 c 128
 148 493 136 536 120 575 c 128
 104 614 86 647 66 676 c 128
 46 705 26 728 5 746 c 1
 23 799 l 1
 26 799 l 1
 54 784 82 761 111 730 c 128
 140 699 166 662 190 618 c 128
 214 574 232 523 246 468 c 128
 260 413 267 353 267 289 c 2
 267 284 l 2
 267 219 260 159 246 104 c 128
 232 49 214 -1 190 -45 c 128
 166 -89 140 -126 112 -157 c 128
 84 -188 55 -211 26 -226 c 1
 23 -226 l 1
EndSplineSet
EndChar

StartChar: bracketleft
Encoding: 14 91 9
Width: 279
Flags: HW
LayerCount: 2
Fore
SplineSet
77 -152 m 1
 77 812 l 1
 264 812 l 1
 264 737 l 1
 173 737 l 1
 173 -77 l 1
 264 -77 l 1
 264 -152 l 1
 77 -152 l 1
EndSplineSet
EndChar

StartChar: bracketright
Encoding: 15 93 10
Width: 269
Flags: HW
LayerCount: 2
Fore
SplineSet
11 -152 m 1
 11 -77 l 1
 103 -77 l 1
 103 737 l 1
 11 737 l 1
 11 812 l 1
 199 812 l 1
 199 -152 l 1
 11 -152 l 1
EndSplineSet
EndChar

StartChar: braceleft
Encoding: 16 123 11
Width: 342
Flags: HW
LayerCount: 2
Fore
SplineSet
308 -178 m 1
 245 -160 199 -131 172 -92 c 128
 145 -53 132 -6 132 49 c 2
 132 149 l 2
 132 186 124 214 108 234 c 128
 92 254 66 265 31 265 c 1
 31 337 l 1
 66 337 92 347 108 367 c 128
 124 387 132 415 132 452 c 2
 132 553 l 2
 132 608 145 655 172 694 c 128
 199 733 245 762 308 780 c 1
 328 723 l 1
 292 712 267 692 252 662 c 128
 237 632 229 596 229 553 c 2
 229 452 l 2
 229 418 222 388 208 362 c 128
 194 336 174 316 146 301 c 1
 174 286 194 266 208 240 c 128
 222 214 229 183 229 149 c 2
 229 49 l 2
 229 6 237 -30 252 -59 c 128
 267 -88 292 -109 328 -120 c 1
 308 -178 l 1
EndSplineSet
EndChar

StartChar: braceright
Encoding: 17 125 12
Width: 342
Flags: HW
LayerCount: 2
Fore
SplineSet
33 -178 m 1
 13 -120 l 1
 48 -108 74 -87 89 -58 c 128
 104 -29 112 6 112 49 c 2
 112 149 l 2
 112 184 119 214 134 240 c 128
 149 266 171 287 202 301 c 1
 171 314 149 334 134 360 c 128
 119 386 112 417 112 452 c 2
 112 553 l 2
 112 596 104 632 89 662 c 128
 74 692 48 712 13 723 c 1
 33 780 l 1
 96 762 141 733 168 694 c 128
 195 655 208 608 208 553 c 2
 208 452 l 2
 208 415 216 387 233 367 c 128
 250 347 275 337 310 337 c 1
 310 265 l 1
 275 265 250 254 233 234 c 128
 216 214 208 186 208 149 c 2
 208 49 l 2
 208 -6 195 -53 168 -92 c 128
 141 -131 96 -160 33 -178 c 1
EndSplineSet
EndChar

StartChar: quotedbl
Encoding: 2 34 13
Width: 375
Flags: HW
HStem: 515 247<81 128 232 279>
VStem: 81 77<620.8 762> 81 47<515 547.2> 232 77<620.8 762> 232 47<515 547.2>
LayerCount: 2
Fore
SplineSet
232 515 m 1x88
 232 662 l 1
 232 762 l 1
 309 762 l 1
 309 653 l 1x90
 279 515 l 1
 232 515 l 1x88
81 515 m 1xa0
 81 662 l 1
 81 762 l 1
 158 762 l 1
 158 653 l 1xc0
 128 515 l 1
 81 515 l 1xa0
EndSplineSet
EndChar

StartChar: ampersand
Encoding: 6 38 14
Width: 629
Flags: HW
LayerCount: 2
Fore
SplineSet
268 -10 m 0
 221 -10 181 -1 146 16 c 128
 111 33 83 56 64 86 c 128
 45 116 36 152 36 191 c 256
 36 230 48 265 70 294 c 128
 92 323 125 353 168 382 c 0
 169 383 169 383 170 384 c 128
 171 385 172 385 173 385 c 1
 148 417 128 446 116 471 c 128
 104 496 98 522 98 549 c 0
 98 586 106 616 120 642 c 128
 134 668 154 688 181 701 c 128
 208 714 240 721 277 721 c 0
 312 721 342 714 368 700 c 128
 394 686 414 669 429 646 c 128
 444 623 451 598 451 570 c 0
 451 538 442 510 425 487 c 128
 408 464 382 440 349 416 c 2
 296 376 l 1
 462 177 l 1
 475 198 486 222 493 248 c 128
 500 274 504 300 504 329 c 1
 590 329 l 1
 590 286 584 247 571 210 c 128
 558 173 540 141 516 112 c 1
 606 2 l 1
 605 0 l 1
 494 0 l 1
 452 50 l 1
 426 31 397 16 366 6 c 128
 335 -4 302 -10 268 -10 c 0
268 65 m 0
 291 65 314 69 337 77 c 128
 360 85 381 96 401 111 c 1
 225 324 l 1
 206 310 l 2
 177 288 157 266 147 246 c 128
 137 226 132 208 132 191 c 0
 132 154 144 124 167 100 c 128
 190 76 224 65 268 65 c 0
247 435 m 1
 314 481 l 2
 333 494 345 508 352 522 c 128
 359 536 362 552 362 570 c 0
 362 590 354 608 338 623 c 128
 322 638 302 646 277 646 c 0
 250 646 230 637 216 618 c 128
 202 599 194 577 194 550 c 0
 194 533 199 515 208 496 c 128
 217 477 230 457 247 435 c 1
EndSplineSet
EndChar

StartChar: dollar
Encoding: 4 36 15
Width: 541
Flags: HW
LayerCount: 2
Fore
SplineSet
229 -102 m 1
 229 -8 l 1
 192 -4 159 6 130 23 c 128
 101 40 79 63 63 94 c 128
 47 125 39 162 40 207 c 1
 41 209 l 1
 134 209 l 1
 134 176 140 148 151 128 c 128
 162 108 178 93 198 84 c 128
 218 75 240 70 265 70 c 0
 293 70 316 75 336 84 c 128
 356 93 371 106 382 123 c 128
 393 140 398 160 398 184 c 0
 398 203 393 220 384 236 c 128
 375 252 362 266 342 279 c 128
 322 292 296 303 264 314 c 0
 221 327 184 343 154 362 c 128
 124 381 103 404 88 431 c 128
 73 458 65 489 65 526 c 0
 65 580 81 624 112 658 c 128
 143 692 185 712 239 719 c 1
 239 827 l 1
 316 827 l 1
 316 718 l 1
 371 710 413 687 443 648 c 128
 473 609 488 557 488 492 c 1
 481 492 l 1
 392 492 l 1
 392 536 382 572 362 599 c 128
 342 626 313 640 276 640 c 0
 237 640 209 630 190 610 c 128
 171 590 161 563 161 528 c 0
 161 507 165 490 174 474 c 128
 183 458 196 444 216 432 c 128
 236 420 263 407 298 396 c 0
 342 382 379 365 408 346 c 128
 437 327 458 305 472 279 c 128
 486 253 494 222 494 185 c 0
 494 129 477 84 444 51 c 128
 411 18 365 -2 306 -8 c 1
 306 -102 l 1
 229 -102 l 1
EndSplineSet
EndChar

StartChar: numbersign
Encoding: 3 35 16
Width: 608
Flags: HW
LayerCount: 2
Fore
SplineSet
106 0 m 1
 146 200 l 1
 31 200 l 1
 31 269 l 1
 159 269 l 1
 192 438 l 1
 68 438 l 1
 68 508 l 1
 206 508 l 1
 246 711 l 1
 320 711 l 1
 280 508 l 1
 404 508 l 1
 444 711 l 1
 518 711 l 1
 478 508 l 1
 576 508 l 1
 576 438 l 1
 465 438 l 1
 432 269 l 1
 539 269 l 1
 539 200 l 1
 418 200 l 1
 379 0 l 1
 305 0 l 1
 344 200 l 1
 219 200 l 1
 180 0 l 1
 106 0 l 1
233 269 m 1
 358 269 l 1
 391 438 l 1
 266 438 l 1
 233 269 l 1
EndSplineSet
EndChar

StartChar: less
Encoding: 11 60 17
Width: 496
Flags: HW
LayerCount: 2
Fore
SplineSet
436 52 m 1
 37 237 l 1
 37 310 l 1
 436 495 l 1
 436 396 l 1
 163 283 l 1
 121 274 l 1
 121 271 l 1
 163 262 l 1
 436 150 l 1
 436 52 l 1
EndSplineSet
EndChar

StartChar: greater
Encoding: 12 62 18
Width: 517
Flags: HW
LayerCount: 2
Fore
SplineSet
61 42 m 1
 61 138 l 1
 353 254 l 1
 394 263 l 1
 394 266 l 1
 353 275 l 1
 61 390 l 1
 61 485 l 1
 479 300 l 1
 479 228 l 1
 61 42 l 1
EndSplineSet
EndChar

StartChar: percent
Encoding: 5 37 19
Width: 712
Flags: HW
LayerCount: 2
Fore
SplineSet
206 54 m 1
 153 86 l 1
 500 642 l 1
 553 609 l 1
 206 54 l 1
529 -10 m 0
 499 -10 473 -4 451 9 c 128
 429 22 412 40 400 62 c 128
 388 84 382 109 382 136 c 2
 382 174 l 2
 382 201 388 226 400 248 c 128
 412 270 429 289 451 302 c 128
 473 315 499 321 528 321 c 256
 557 321 584 315 606 302 c 128
 628 289 646 271 658 249 c 128
 670 227 676 202 676 174 c 2
 676 136 l 2
 676 108 670 83 658 61 c 128
 646 39 628 22 606 9 c 128
 584 -4 558 -10 529 -10 c 0
529 49 m 0
 553 49 571 57 584 74 c 128
 597 91 604 112 604 136 c 2
 604 174 l 2
 604 198 597 219 584 236 c 128
 571 253 552 261 528 261 c 256
 504 261 485 253 472 236 c 128
 459 219 453 198 453 174 c 2
 453 136 l 2
 453 111 459 91 472 74 c 128
 485 57 504 49 529 49 c 0
185 391 m 256
 156 391 130 397 108 410 c 128
 86 423 68 440 56 462 c 128
 44 484 38 509 38 537 c 2
 38 574 l 2
 38 602 44 627 56 649 c 128
 68 671 85 689 107 702 c 128
 129 715 155 721 184 721 c 0
 214 721 240 715 262 702 c 128
 284 689 302 672 314 650 c 128
 326 628 332 602 332 574 c 2
 332 537 l 2
 332 509 326 484 314 462 c 128
 302 440 284 423 262 410 c 128
 240 397 214 391 185 391 c 256
185 450 m 0
 209 450 227 458 240 475 c 128
 253 492 260 512 260 537 c 2
 260 574 l 2
 260 598 253 619 240 636 c 128
 227 653 208 662 184 662 c 256
 160 662 141 653 128 636 c 128
 115 619 109 598 109 574 c 2
 109 537 l 2
 109 513 115 493 128 476 c 128
 141 459 160 450 185 450 c 0
EndSplineSet
EndChar

StartChar: NameMe.66773
Encoding: 256 -1 20
Width: 551
VWidth: 988
Flags: HW
HStem: 0 21G<70 126.5 398 487> 480 20G<422 487>
VStem: 70 88<144.421 728> 398 89<0 357.625>
LayerCount: 2
Fore
SplineSet
70 728 m 1
 158 728 l 1
 158 192 l 2
 157 169 l 0
 157 161 157 153 156 144 c 1
 400 484 l 2
 402 486 404 489 407 492 c 0
 409 494 412 496 414 497 c 0
 416 498 420 500 424 500 c 0
 428 500 433 500 437 500 c 2
 487 500 l 1
 487 0 l 1
 398 0 l 1
 398 312 l 2
 399 334 l 0
 399 342 399 350 400 358 c 1
 156 17 l 2
 154 14 149 10 141 4 c 0
 137 1 131 0 122 0 c 2
 70 0 l 1
 70 728 l 1
EndSplineSet
EndChar

StartChar: NameMe.66774
Encoding: 257 -1 21
Width: 551
VWidth: 988
Flags: HW
HStem: 0 21G<70 126.5> 480 20G<70 158 422 487>
VStem: 70 88<144.421 500> 398 89<-169 357.625>
LayerCount: 2
Fore
SplineSet
70 500 m 1
 158 500 l 1
 158 192 l 2
 158 185 157 177 157 169 c 0
 157 161 157 153 156 144 c 1
 400 484 l 2
 402 486 404 489 407 492 c 0
 409 494 412 496 414 497 c 0
 416 498 420 500 424 500 c 0
 428 500 433 500 437 500 c 2
 487 500 l 1
 487 -169 l 1
 398 -169 l 1
 398 312 l 2
 398 319 399 326 399 334 c 0
 399 342 399 350 400 358 c 1
 156 17 l 2
 154 14 149 10 141 4 c 0
 137 1 131 0 122 0 c 2
 70 0 l 1
 70 500 l 1
EndSplineSet
EndChar

StartChar: NameMe.66777
Encoding: 258 -1 22
Width: 415
VWidth: 988
Flags: HW
HStem: 0 21G<101 125.5 298.5 357> 480 20G<269 357>
VStem: 70 88<64 728> 269 88<109.359 500> 281 76<0.0703125 72>
LayerCount: 2
Fore
SplineSet
158 64 m 1xe8
 175 67 192 73 207 81 c 0
 230 93 250 110 269 132 c 1
 269 500 l 1
 357 500 l 1xf0
 357 0 l 1
 305 0 l 2
 292 0 284 6 281 18 c 1
 274 72 l 1
 252 48 228 29 201 16 c 0
 174 3 143 -3 108 -3 c 0
 94 -3 82 -2 70 -0 c 1
 70 32 70 32 70 728 c 1
 158 728 l 1
 158 64 l 1xe8
EndSplineSet
EndChar

StartChar: NameMe.66775
Encoding: 259 -1 23
Width: 415
VWidth: 988
Flags: HW
HStem: 0 21G<70 150.5> 480 20G<272 357>
VStem: 70 88<76 728> 272 85<126.563 500>
LayerCount: 2
Fore
SplineSet
158 76 m 17
 234 89 272 132 272 204 c 10
 272 500 l 1
 357 500 l 1
 357 202 l 2
 357 141 335 92 292 56 c 0
 248 19 188 0 113 0 c 2
 70 0 l 1
 70 728 l 1
 158 728 l 1
 158 76 l 17
EndSplineSet
EndChar

StartChar: NameMe.66778
Encoding: 260 -1 24
Width: 415
VWidth: 988
Flags: HW
HStem: 0 21G<70 158> 480 20G<70 128.5 301.5 326>
VStem: 70 88<0 391.641> 70 76<428 499.93> 269 88<-169 436>
LayerCount: 2
Fore
SplineSet
269 436 m 1xd8
 252 433 235 428 220 420 c 0
 197 408 177 391 158 369 c 1
 158 0 l 1
 70 0 l 1xe8
 70 500 l 1
 122 500 l 2
 135 500 143 494 146 482 c 1
 153 428 l 1
 175 452 199 471 226 484 c 0
 253 497 284 504 319 504 c 0
 333 504 345 503 357 501 c 1
 357 498 357 498 357 -169 c 1
 269 -169 l 1
 269 436 l 1xd8
EndSplineSet
EndChar

StartChar: NameMe.66776
Encoding: 261 -1 25
Width: 415
VWidth: 988
Flags: HW
HStem: 0 21G<70 155> 480 20G<276.5 357>
VStem: 70 85<0 372.088> 269 88<-169 424>
LayerCount: 2
Fore
SplineSet
269 424 m 17
 193 411 155 368 155 296 c 10
 155 0 l 1
 70 0 l 1
 70 299 l 2
 70 360 92 409 135 445 c 0
 179 482 239 500 314 500 c 2
 357 500 l 1
 357 -169 l 1
 269 -169 l 1
 269 424 l 17
EndSplineSet
EndChar

StartChar: NameMe.66779
Encoding: 262 -1 26
Width: 550
VWidth: 988
Flags: HW
HStem: 0 78<158 275.633> 480 20G<70 158 398 487>
VStem: 70 88<78 500> 398 89<178.004 500> 409 78<0.287109 140>
LayerCount: 2
Fore
SplineSet
403 140 m 1xe8
 356 47 272 0 150 0 c 0
 110 0 110 0 70 0 c 1
 70 77 l 2
 70 466 l 0
 70 500 l 1
 158 500 l 0
 158 78 l 0
 162 78 l 2
 267 78 338 111 377 178 c 0
 385 191 392 207 398 224 c 1
 398 500 l 1
 487 500 l 1xf0
 487 0 l 1
 436 0 l 2
 419 0 410 8 409 24 c 2
 403 140 l 1xe8
EndSplineSet
EndChar

StartChar: NameMe.66780
Encoding: 263 -1 27
Width: 550
VWidth: 988
Flags: HW
HStem: 0 77<158 218.839> 480 20G<70 158 403.5 487>
VStem: 70 88<77 500> 398 89<0 359>
LayerCount: 2
Fore
SplineSet
487 500 m 1
 487 0 l 1
 443 0 442 0 398 0 c 1
 398 282 l 2
 398 316 399 338 400 347 c 0
 401 351 402 355 402 359 c 257
 369 120 281 0 139 0 c 2
 70 0 l 1
 70 500 l 1
 158 500 l 1
 158 77 l 1
 258 77 334 213 384 483 c 0
 386 495 395 500 412 500 c 2
 487 500 l 1
EndSplineSet
EndChar

StartChar: NameMe.66781
Encoding: 264 -1 28
Width: 359
VWidth: 988
Flags: HW
HStem: 0 21G<70 158> 423 86<222.581 345.904>
VStem: 70 88<0 362.216 401 728>
LayerCount: 2
Fore
SplineSet
158 728 m 5
 158 460 l 4
 158 401 l 5
 173 435 191 461 213 480 c 4
 235 499 262 509 295 509 c 4
 306 509 316 508 326 506 c 4
 336 504 344 501 352 496 c 5
 346 430 l 5
 344 421 339 417 331 417 c 4
 326 417 319 418 310 420 c 4
 301 422 292 423 281 423 c 4
 265 423 250 421 238 416 c 4
 226 411 215 404 205 395 c 4
 195 386 187 374 179 361 c 4
 171 348 165 332 158 315 c 5
 158 0 l 5
 100 0 l 4
 70 0 l 5
 70 728 l 5
 158 728 l 5
EndSplineSet
EndChar

StartChar: NameMe.66782
Encoding: 265 -1 29
Width: 359
VWidth: 988
Flags: HW
HStem: -7 87<26.0967 149.419> 480 20G<214 302>
VStem: 214 88<-169 101 139.784 500>
LayerCount: 2
Fore
SplineSet
214 -169 m 1
 214 42 l 0
 214 101 l 1
 199 67 181 41 159 22 c 0
 137 3 110 -7 77 -7 c 0
 66 -7 56 -5 46 -3 c 0
 36 -1 28 2 20 7 c 1
 26 73 l 1
 28 82 34 85 42 85 c 0
 47 85 53 85 62 83 c 0
 71 81 80 80 91 80 c 0
 107 80 122 82 134 87 c 0
 146 92 157 98 167 107 c 0
 177 116 185 128 193 141 c 0
 201 154 207 170 214 187 c 1
 214 500 l 1
 272 500 l 0
 302 500 l 1
 302 -169 l 1
 214 -169 l 1
EndSplineSet
EndChar

StartChar: NameMe.66783
Encoding: 266 -1 30
Width: 471
VWidth: 988
Flags: HW
HStem: -174 68<223.104 376.686> 440 68<226.167 378.785>
VStem: 56 90<-1.39722 336.01>
LayerCount: 2
Fore
SplineSet
432 412 m 2
 429 408 427 405 424 403 c 0
 421 401 419 400 414 400 c 0
 409 400 403 402 397 406 c 0
 391 410 384 415 376 420 c 0
 368 425 357 430 345 434 c 0
 333 438 319 440 302 440 c 0
 276 440 253 435 234 424 c 0
 215 413 198 397 185 375 c 0
 172 353 162 324 156 290 c 0
 150 256 146 214 146 167 c 0
 146 117 150 75 157 40 c 0
 164 5 174 -23 187 -45 c 0
 200 -67 217 -82 236 -92 c 0
 255 -102 277 -106 302 -106 c 0
 321 -106 336 -104 349 -99 c 0
 362 -94 371 -88 380 -82 c 0
 389 -76 396 -69 402 -64 c 0
 408 -59 414 -57 420 -57 c 0
 424 -57 427 -58 430 -59 c 0
 433 -60 435 -62 437 -65 c 2
 461 -97 l 1
 450 -111 439 -122 425 -132 c 0
 411 -142 396 -150 381 -156 c 0
 366 -162 350 -167 334 -170 c 0
 318 -173 302 -174 287 -174 c 0
 253 -174 221 -168 193 -156 c 0
 165 -144 141 -124 121 -97 c 0
 101 -70 84 -35 73 7 c 0
 62 49 56 101 56 162 c 0
 56 276 76 361 117 420 c 0
 158 479 217 508 294 508 c 0
 328 508 358 502 385 491 c 0
 412 480 435 464 456 443 c 1
 432 412 l 2
EndSplineSet
EndChar

StartChar: NameMe.66784
Encoding: 267 -1 31
Width: 446
VWidth: 988
Flags: HW
HStem: -179 67<166.628 313.656> 432 68<29 293>
VStem: 30 75<-50.9284 116.254>
LayerCount: 2
Fore
SplineSet
293 432 m 1
 29 432 l 1
 29 500 l 1
 406 500 l 1
 406 464 l 2
 406 460 405 455 403 449 c 0
 401 442 398 436 394 432 c 2
 166 173 l 2
 125 126 105 80 105 35 c 3
 105 -14 119 -50 146 -75 c 0
 174 -100 205 -112 241 -112 c 3
 277 -112 313 -96 351 -64 c 1
 366 -52 379 -54 390 -69 c 2
 411 -97 l 1
 362 -152 303 -179 234 -179 c 0
 177 -179 130 -161 91 -126 c 0
 50 -89 30 -41 30 19 c 3
 30 91 56 157 107 217 c 2
 293 432 l 1
EndSplineSet
EndChar

StartChar: py
Encoding: 20 60800 32
Width: 521
GlyphClass: 2
Flags: W
HStem: 0 62<24 67.0769> 466 62<326 364.231> 700 62<24 64>
VStem: 104 96<154 686>
AnchorPoint: "Top" 415 658 basechar 0
AnchorPoint: "Bottom" 203 0 basechar 0
LayerCount: 2
Back
SplineSet
24 0 m 5
 24 62 l 5
 104 75 l 5
 104 686 l 5
 24 700 l 5
 24 762 l 5
 200 762 l 5
 200 458 l 5
 218 483 240 503 266 517 c 4
 292 531 322 538 354 538 c 4
 411 538 455 522 486 488 c 4
 517 454 533 402 533 331 c 6
 533 75 l 5
 613 62 l 5
 613 0 l 5
 357 0 l 5
 357 62 l 5
 437 75 l 5
 437 332 l 6
 437 375 428 407 409 428 c 4
 390 449 362 460 325 460 c 4
 298 460 274 454 253 441 c 4
 232 428 214 411 200 390 c 5
 200 75 l 5
 279 62 l 5
 279 0 l 5
 24 0 l 5
EndSplineSet
Fore
SplineSet
493 528 m 1
 493 460 l 1
 200 0 l 1
 24 0 l 1
 24 62 l 1
 104 75 l 1
 104 686 l 1
 24 700 l 1
 24 762 l 1
 200 762 l 1
 200 687 l 1
 200 154 l 1
 203 153 l 1
 397 453 l 0
 326 466 l 1
 326 528 l 1
 397 528 l 1
 493 528 l 1
EndSplineSet
EndChar

StartChar: ty
Encoding: 21 60801 33
Width: 642
GlyphClass: 2
Flags: W
HStem: 0 62<24 67.0769 236.462 279 357 400.077 569.923 613> 460 78<264.957 397.017> 700 62<24 64>
VStem: 104 96<75 416.083 458 686> 437 96<75 418.422>
AnchorPoint: "Top" 399 657 basechar 0
AnchorPoint: "Bottom" 317 0 basechar 0
LayerCount: 2
Fore
SplineSet
24 0 m 1
 24 62 l 1
 104 75 l 1
 104 686 l 1
 24 700 l 1
 24 762 l 1
 200 762 l 1
 200 458 l 1
 218 483 240 503 266 517 c 0
 292 531 322 538 354 538 c 0
 411 538 455 522 486 488 c 0
 517 454 533 402 533 331 c 2
 533 75 l 1
 613 62 l 1
 613 0 l 1
 357 0 l 1
 357 62 l 1
 437 75 l 1
 437 332 l 2
 437 375 428 407 409 428 c 0
 390 449 362 460 325 460 c 0
 298 460 274 454 253 441 c 0
 232 428 214 411 200 390 c 1
 200 75 l 1
 279 62 l 1
 279 0 l 1
 24 0 l 1
EndSplineSet
EndChar

StartChar: ky
Encoding: 22 60802 34
Width: 658
GlyphClass: 2
Flags: W
HStem: 0 62<24 67.0769 357 400.077 569.923 613> 466 62<569 611> 700 62<24 64>
VStem: 104 96<154 686> 437 96<75 374>
AnchorPoint: "Top" 485 658 basechar 0
AnchorPoint: "Bottom" 325 0 basechar 0
LayerCount: 2
Back
SplineSet
24 0 m 5
 24 62 l 5
 104 75 l 5
 104 686 l 5
 24 700 l 5
 24 762 l 5
 200 762 l 5
 200 458 l 5
 218 483 240 503 266 517 c 4
 292 531 322 538 354 538 c 4
 411 538 455 522 486 488 c 4
 517 454 533 402 533 331 c 6
 533 75 l 5
 613 62 l 5
 613 0 l 5
 357 0 l 5
 357 62 l 5
 437 75 l 5
 437 332 l 6
 437 375 428 407 409 428 c 4
 390 449 362 460 325 460 c 4
 298 460 274 454 253 441 c 4
 232 428 214 411 200 390 c 5
 200 75 l 5
 279 62 l 5
 279 0 l 5
 24 0 l 5
EndSplineSet
Fore
SplineSet
24 0 m 1
 24 62 l 1
 104 75 l 1
 104 686 l 1
 24 700 l 1
 24 762 l 1
 200 762 l 1
 200 687 l 1
 200 154 l 1
 203 153 l 1
 435 528 l 1
 532 528 l 1
 611 528 l 1
 611 466 l 1
 533 453 l 1
 533 75 l 1
 613 62 l 1
 613 0 l 1
 357 0 l 1
 357 62 l 1
 437 75 l 1
 437 374 l 1
 435 375 l 1
 200 0 l 1
 24 0 l 1
EndSplineSet
EndChar

StartChar: fy
Encoding: 23 60803 35
Width: 503
GlyphClass: 2
Flags: W
HStem: 0 73<159 384> 466 62<156 198.538>
VStem: 397 72<114.538 163>
AnchorPoint: "Top" 270 658 basechar 0
AnchorPoint: "Bottom" 228 0 basechar 0
LayerCount: 2
Fore
SplineSet
331 528 m 1
 331 294 184 116 159 73 c 5
 384 73 l 5
 397 163 l 5
 469 163 l 5
 469 0 l 5
 43 0 l 5
 43 67 l 5
 137 224 222 288 235 453 c 1
 156 466 l 1
 156 528 l 1
 331 528 l 1
EndSplineSet
EndChar

StartChar: ly
Encoding: 24 60804 36
Width: 520
GlyphClass: 2
Flags: W
HStem: -10 75<201.887 348.949> 462 76<206.205 358.498>
VStem: 38 96<143.111 377.718> 395 87<110.158 163> 395 75<333 370.882>
AnchorPoint: "Top" 271 655 basechar 0
AnchorPoint: "Bottom" 263 0 basechar 0
LayerCount: 2
Fore
SplineSet
275 -10 m 0xf0
 227 -10 185 2 150 24 c 0
 115 46 88 76 68 116 c 0
 48 156 38 202 38 254 c 2
 38 274 l 2
 38 324 47 369 66 409 c 0
 85 449 113 481 148 504 c 0
 183 527 226 538 275 538 c 0
 318 538 355 531 387 517 c 0
 419 503 446 484 468 459 c 1
 470 333 l 1
 395 333 l 1
 378 425 l 1
 367 436 352 445 336 452 c 0
 320 459 301 462 278 462 c 0
 249 462 224 454 202 437 c 0
 180 420 164 398 152 370 c 0
 140 342 134 309 134 274 c 2
 134 254 l 2
 134 215 140 182 151 154 c 0
 162 126 179 103 200 88 c 0
 221 73 245 65 274 65 c 0
 307 65 334 74 356 92 c 0
 378 110 390 135 395 166 c 1xe8
 481 166 l 1
 482 163 l 1
 481 133 472 105 456 78 c 0
 440 51 416 30 386 14 c 0
 356 -2 319 -10 275 -10 c 0xf0
EndSplineSet
EndChar

StartChar: sy
Encoding: 25 60805 37
Width: 554
GlyphClass: 2
Flags: W
HStem: -9.91699 77.917<192.513 325.366> 460 78<199.445 334.951> 686 76<349 389> 700 62<309 349>
VStem: 38 96<135.154 380.024> 389 98<135.561 417.375 471 686>
AnchorPoint: "Top" 152 657 basechar 0
AnchorPoint: "Bottom" 276 0 basechar 0
LayerCount: 2
Back
SplineSet
388 650 m 1
 304 664 l 1
 304 726 l 1
 559 726 l 1
 559 664 l 1
 484 650 l 1
 485 241 l 2
 485.131835938 187 475.333007812 141 456 103 c 0
 436.666992188 65 410.5 35.8330078125 377.5 15.5 c 0
 344.5 -4.8330078125 307.333007812 -15 266 -15 c 0
 216.666992188 -15 175 -3.3330078125 141 20 c 0
 107 43.3330078125 81.1669921875 76.3330078125 63.5 119 c 0
 45.8330078125 161.666992188 37 211.666992188 37 269 c 2
 37 279 l 2
 37 330.333007812 45 375 61 413 c 0
 77 451 100.166992188 480.5 130.5 501.5 c 0
 160.833007812 522.5 197.333007812 533 240 533 c 0
 271.333007812 533 299.5 528.166992188 324.5 518.5 c 0
 349.5 508.833007812 370.666992188 494.666992188 388 476 c 1
 388 650 l 1
270 458 m 0
 224.666992188 458 190.5 441.333007812 167.5 408 c 0
 144.5 374.666992188 133 331.666992188 133 279 c 2
 133 269 l 2
 133 227.666992188 137.666992188 191.333007812 147 160 c 0
 156.333007812 128.666992188 170.833007812 104.333007812 190.5 87 c 0
 210.166992188 69.6669921875 235.333007812 61 266 61 c 0
 292.666992188 61 315.166992188 69.6669921875 333.5 87 c 0
 351.833007812 104.333007812 365.5 126.833007812 374.5 154.5 c 0
 383.5 182.166992188 388 211.333007812 388 242 c 2
 388 390 l 1
 376 412 360.333007812 428.833007812 341 440.5 c 0
 321.666992188 452.166992188 298 458 270 458 c 0
EndSplineSet
Fore
SplineSet
253 -9.9169921875 m 3xdc
 204.406550889 -9.9169921875 165 1 134 22 c 0
 103 43 78 73 62 111 c 0
 46 149 38 193 38 244 c 2
 38 254 l 2
 38 311 46 360 62 403 c 0
 78 446 103 478 134 502 c 0
 165 526 202 538 245 538 c 0
 276 538 304 532 328 520 c 0
 352 508 372 492 389 471 c 1
 389 686 l 1xec
 309 700 l 1
 309 762 l 1xdc
 389 762 l 1xec
 485 762 l 1
 487 246 l 1
 481.324008623 92.748232825 408 -9.9169921875 253 -9.9169921875 c 3xdc
268 68 m 3
 301 68 345 101 357 115 c 0
 372 132 386 176 390 222 c 1
 389 388 l 1
 376 410 360 427 340 440 c 0
 320 453 297 460 269 460 c 0
 238 460 214 451 194 434 c 0
 174 417 159 393 149 362 c 0
 139 331 134 295 134 254 c 2
 134 244 l 2
 134 191 145 148 167 116 c 0
 189 84 223 68 268 68 c 3
EndSplineSet
EndChar

StartChar: cy
Encoding: 26 60806 38
Width: 655
GlyphClass: 2
Flags: W
HStem: -1 63<36 79.0769 248.923 292 369 411.538 580.923 624> 460 78<276.443 412.003> 466 62<36 79.0769> 686 76<408 448> 700 62<368 408>
VStem: 116 96<75 415.379> 448 96<75 423.219 503 686>
AnchorPoint: "Top" 162 658 basechar 0
AnchorPoint: "Bottom" 329 0 basechar 0
LayerCount: 2
Fore
SplineSet
448 503 m 0xc6
 448 686 l 1xd6
 368 700 l 1
 368 762 l 1x8e
 448 762 l 1x96
 544 762 l 1
 544 333 l 17
 544 75 l 1
 624 62 l 1
 624 0 l 1
 369 0 l 1
 369 62 l 1
 448 75 l 1
 448 332 l 2
 448 379 438 412 420 431 c 0
 402 450 374 460 336 460 c 0xce
 308 460 283 453 262 440 c 0
 241 427 225 408 212 385 c 1
 212 75 l 1
 292 62 l 1
 292 -1 l 1
 36 -1 l 1
 36 62 l 1
 116 75 l 1
 116 453 l 1
 36 466 l 1
 36 528 l 1
 202 528 l 1xa6
 208 450 l 1
 225 478 247 500 274 515 c 0
 301 530 331 538 365 538 c 0
 422 538 438 514 448 503 c 0xc6
EndSplineSet
EndChar

StartChar: my
Encoding: 27 60807 39
Width: 503
GlyphClass: 2
Flags: W
HStem: 464 74<148.944 311.196>
VStem: 339 96<356.178 437.234> 397 72<114.538 163>
AnchorPoint: "Top" 262 656.658 basechar 0
AnchorPoint: "Bottom" 226 0 basechar 0
LayerCount: 2
Fore
SplineSet
43 67 m 1xc0
 43 0 l 1
 469 0 l 1
 469 163 l 1
 397 163 l 1xa0
 384 73 l 1
 159 73 l 1
 241.030462523 164.677785091 434.131162331 304.156086798 435 387 c 0
 435.300632745 415.665415766 426.833007812 441.333007812 410.5 464 c 0
 394.166992188 486.666992188 371.166992188 504.666992188 341.5 518 c 0
 311.833007812 531.333007812 277.333007812 538 238 538 c 0
 198 538 163.666992188 533.5 135 524.5 c 0
 106.333007812 515.5 81.3330078125 503.333007812 60 488 c 1
 55 367 l 1
 128 367 l 1
 143 438 l 1
 154.333007812 446.666992188 167.833007812 453.166992188 183.5 457.5 c 0
 199.166992188 461.833007812 217.333007812 464 238 464 c 0
 268 464 292.333007812 457 311 443 c 0
 329.666992188 429 339.705580797 411.321336217 339 390 c 0
 337.41165096 342.003053306 110.652896016 182.75156067 43 67 c 1xc0
EndSplineSet
EndChar

StartChar: xy
Encoding: 28 60808 40
Width: 548
GlyphClass: 2
Flags: W
HStem: -10 75<202.409 347.318> 462 76<201.857 348.057>
VStem: 38 96<145.118 380.366> 415 96<145.846 380.878>
AnchorPoint: "Top" 282 656 basechar 0
AnchorPoint: "Bottom" 281 0 basechar 0
LayerCount: 2
Fore
SplineSet
275 -10 m 0
 226 -10 184 1 149 24 c 0
 114 47 86 80 67 120 c 0
 48 160 38 206 38 258 c 2
 38 269 l 2
 38 321 48 367 67 408 c 0
 86 449 114 481 149 504 c 0
 184 527 226 538 274 538 c 0
 323 538 365 527 400 504 c 0
 435 481 463 448 482 408 c 0
 501 368 511 322 511 269 c 2
 511 258 l 2
 511 205 501 158 482 118 c 0
 463 78 435 47 400 24 c 0
 365 1 324 -10 275 -10 c 0
275 65 m 0
 306 65 331 73 352 90 c 0
 373 107 388 130 399 159 c 0
 410 188 415 221 415 258 c 2
 415 269 l 2
 415 306 410 339 399 368 c 0
 388 397 373 420 352 437 c 0
 331 454 305 462 274 462 c 0
 243 462 218 454 197 437 c 0
 176 420 161 397 150 368 c 0
 139 339 134 306 134 269 c 2
 134 258 l 2
 134 221 139 187 150 158 c 0
 161 129 177 107 198 90 c 0
 219 73 244 65 275 65 c 0
EndSplineSet
EndChar

StartChar: denpabu
Encoding: 29 60809 41
Width: 251
GlyphClass: 2
Flags: HW
HStem: 308 99<78 174>
VStem: 78 96<308 407>
AnchorPoint: "Top" 127 657 basechar 0
AnchorPoint: "Bottom" 129 0 basechar 0
LayerCount: 2
Fore
SplineSet
78 308 m 5
 78 407 l 5
 174 407 l 5
 174 308 l 5
 78 308 l 5
EndSplineSet
Substitution2: "Single Substitution lookup 73 subtable" denpabu.cas
EndChar

StartChar: yhy
Encoding: 30 60810 42
Width: 318
GlyphClass: 2
Flags: W
HStem: 0 62<33 75.5385 244.923 288> 466 62<33 75.5385>
VStem: 112 96<75 453>
AnchorPoint: "Top" 152 656 basechar 0
AnchorPoint: "Bottom" 155 -0 basechar 0
LayerCount: 2
Fore
SplineSet
33 0 m 1
 33 62 l 1
 112 75 l 1
 112 453 l 1
 33 466 l 1
 33 528 l 1
 208 528 l 1
 208 75 l 1
 288 62 l 1
 288 0 l 1
 33 0 l 1
EndSplineSet
Substitution2: "Single Substitution lookup 75 subtable" yhy.cas
Substitution2: "Single Substitution lookup 74 subtable" yhy.cas
EndChar

StartChar: cnimahobu
Encoding: 31 60811 43
Width: 464
VWidth: 988
GlyphClass: 2
Flags: HW
HStem: 0 21G<306 394> 306 87<27.1897 209.657> 480 20G<304 394>
VStem: 306 88<0 415>
LayerCount: 2
Fore
SplineSet
306 0 m 1
 306 415 l 1
 293 387 267 360 224 335 c 0
 191 316 151 306 102 306 c 0
 86 306 70 308 56 310 c 0
 42 312 29 315 18 320 c 1
 27 386 l 1
 31 395 38 399 50 399 c 0
 57 399 67 398 80 396 c 0
 93 394 108 393 124 393 c 0
 148 393 169 395 187 400 c 0
 205 405 221 412 236 421 c 0
 250 430 264 441 275 454 c 0
 292 474 302 489 306 500 c 1
 394 500 l 1
 394 0 l 1
 306 0 l 1
EndSplineSet
EndChar

StartChar: patonga
Encoding: 32 60812 44
Width: 0
VWidth: 988
GlyphClass: 4
Flags: HW
HStem: -204 141
VStem: -359 198
AnchorPoint: "Bottom" -260 0 mark 0
LayerCount: 2
Fore
SplineSet
-161 -63 m 5
 -276 -190 l 6
 -281 -195 -286 -199 -290 -201 c 4
 -294 -203 -300 -204 -307 -204 c 6
 -359 -204 l 5
 -286 -84 l 6
 -281 -76 -276 -71 -271 -68 c 4
 -266 -65 -258 -63 -247 -63 c 6
 -161 -63 l 5
EndSplineSet
EndChar

StartChar: retonga
Encoding: 33 60813 45
Width: 0
VWidth: 988
GlyphClass: 4
Flags: HW
HStem: -204 141
VStem: -348 196
AnchorPoint: "Bottom" -250 0 mark 0
LayerCount: 2
Fore
SplineSet
-265 -63 m 6
 -254 -63 -245 -65 -240 -68 c 4
 -235 -71 -231 -76 -226 -84 c 6
 -152 -204 l 5
 -202 -204 l 6
 -209 -204 -215 -203 -219 -201 c 4
 -223 -199 -227 -195 -232 -190 c 6
 -348 -63 l 5
 -265 -63 l 6
EndSplineSet
EndChar

StartChar: citonga
Encoding: 34 60814 46
Width: 0
VWidth: 988
GlyphClass: 4
Flags: HW
HStem: -199 130
VStem: -420 302
AnchorPoint: "Bottom" -269 0 mark 0
LayerCount: 2
Fore
SplineSet
-118 -199 m 5
 -177 -199 l 6
 -181 -199 -183 -199 -187 -197 c 4
 -191 -195 -194 -194 -196 -192 c 6
 -260 -125 l 6
 -262 -123 -263 -122 -264 -120 c 4
 -265 -118 -266 -117 -268 -115 c 5
 -270 -117 -271 -118 -272 -120 c 4
 -273 -122 -274 -123 -276 -125 c 6
 -340 -192 l 6
 -342 -194 -344 -195 -348 -197 c 4
 -352 -199 -355 -199 -359 -199 c 6
 -420 -199 l 5
 -310 -69 l 5
 -228 -69 l 5
 -118 -199 l 5
EndSplineSet
EndChar

StartChar: votonga
Encoding: 35 60815 47
Width: 0
VWidth: 988
GlyphClass: 4
Flags: HW
HStem: -194 130
VStem: -421 302
AnchorPoint: "Bottom" -270 0 mark 0
LayerCount: 2
Fore
SplineSet
-119 -64 m 1
 -229 -194 l 1
 -311 -194 l 1
 -421 -64 l 1
 -360 -64 l 2
 -356 -64 -353 -64 -349 -66 c 0
 -345 -68 -343 -69 -341 -71 c 2
 -277 -138 l 2
 -275 -140 -274 -141 -273 -143 c 0
 -272 -145 -271 -146 -269 -148 c 1
 -267 -146 -266 -145 -265 -143 c 0
 -264 -141 -263 -140 -261 -138 c 2
 -197 -71 l 2
 -195 -69 -192 -68 -188 -66 c 0
 -184 -64 -182 -64 -178 -64 c 2
 -119 -64 l 1
EndSplineSet
EndChar

StartChar: by
Encoding: 36 60816 48
Width: 607
GlyphClass: 2
Flags: W
HStem: -202 62<307 349.538 519.462 562> 0 62<24 67.0769 236.462 279> 466 62<519.462 562>
VStem: 386 97<-127 374>
AnchorPoint: "Top" 434 657 basechar 0
AnchorPoint: "Bottom" 111 0 basechar 0
LayerCount: 2
Fore
SplineSet
104 75 m 1
 386 528 l 1
 562 528 l 1
 562 466 l 1
 483 453 l 1
 483 -127 l 1
 562 -140 l 1
 562 -202 l 1
 307 -202 l 5
 307 -140 l 1
 386 -127 l 1
 386 374 l 1
 384 375 l 1
 200 75 l 1
 279 62 l 1
 279 0 l 1
 24 0 l 1
 24 62 l 1
 104 75 l 1
EndSplineSet
EndChar

StartChar: dy
Encoding: 37 60817 49
Width: 595
GlyphClass: 2
Flags: W
HStem: -203 62<341 380.5 553.5 591> -10 78<218.194 372.528> 453 75<381.769 420> 466 62<25 57.8462 349 387.231>
VStem: 86 96<105.131 453> 420 96<-127 50 112.453 453>
AnchorPoint: "Top" 294 657 basechar 0
AnchorPoint: "Bottom" 221 0 basechar 0
LayerCount: 2
Fore
SplineSet
516 528 m 1xdc
 516 -127 l 1
 591 -141 l 1
 591 -203 l 1
 341 -203 l 1
 341 -141 l 1
 420 -127 l 1
 420 50 l 1
 403 30 387 16 360 5 c 24
 327 -8 303 -10 269 -10 c 0
 212 -10 166 8 134 45 c 0
 102 82 86 139 86 217 c 2
 86 453 l 1xec
 25 466 l 1
 25 528 l 1
 86 528 l 1
 182 528 l 1xdc
 182 216 l 2
 182 160 190 121 207 100 c 0
 224 79 250 68 285 68 c 0
 319 68 348 74 370 88 c 0
 392 102 409 122 420 147 c 1
 420 453 l 1xec
 349 466 l 1
 349 528 l 1xdc
 420 528 l 1xec
 516 528 l 1xdc
EndSplineSet
EndChar

StartChar: gy
Encoding: 38 60818 50
Width: 681
GlyphClass: 2
Flags: W
HStem: -202 62<379 421.538 591.462 634> 0 62<47 90.0769> 453 75<83.9231 127 223 265.538 555 597.538> 466 62<47 90.0769 259.462 302 591.462 634>
VStem: 127 96<154 453> 458 97<-127 374>
AnchorPoint: "Top" 353 656.658 basechar 0
AnchorPoint: "Bottom" 219 0 basechar 0
LayerCount: 2
Fore
SplineSet
47 0 m 1xec
 47 62 l 1
 127 75 l 1
 127 453 l 1xec
 47 466 l 1
 47 528 l 1xdc
 223 528 l 1xec
 302 528 l 1
 302 466 l 1xdc
 223 453 l 1xec
 223 154 l 1
 226 153 l 1
 458 528 l 1xdc
 555 528 l 1xec
 634 528 l 1
 634 466 l 1xdc
 555 453 l 1
 555 -127 l 1
 634 -140 l 1
 634 -202 l 1
 379 -202 l 1
 379 -140 l 1
 458 -127 l 1
 458 374 l 1
 456 375 l 1
 223 0 l 1
 47 0 l 1xec
EndSplineSet
EndChar

StartChar: vy
Encoding: 39 60819 51
Width: 503
GlyphClass: 2
Flags: W
HStem: 0 62<110 152.538 321.923 365> 454 74<134 331>
VStem: 49 73<365 416.917> 189 96<75 196.375>
AnchorPoint: "Top" 257 657 basechar 0
AnchorPoint: "Bottom" 244 0 basechar 0
LayerCount: 2
Fore
SplineSet
189 75 m 5
 191 236 310 413 331 454 c 5
 134 454 l 5
 122 365 l 5
 49 365 l 5
 49 528 l 5
 450 528 l 5
 450 463 l 5
 377 332 289 260 285 75 c 5
 365 62 l 5
 365 0 l 5
 110 0 l 5
 110 62 l 5
 189 75 l 5
EndSplineSet
EndChar

StartChar: ry
Encoding: 40 60820 52
Width: 531
GlyphClass: 2
Flags: W
HStem: -10 75<181.407 332.999> 462 76<171.268 332.634>
VStem: 47 88<109.85 164 342 352.375> 392 101<131.306 229 231 307 309 396.46>
AnchorPoint: "Top" 276 657 basechar 0
AnchorPoint: "Bottom" 233 0 basechar 0
LayerCount: 2
Fore
SplineSet
256 -10 m 0
 219 -10 184 -2 152 14 c 0
 120 30 93 52 74 79 c 0
 55 106 46 134 47 164 c 1
 48 167 l 1
 135 167 l 1
 135 148 141 130 152 115 c 0
 163 100 178 87 196 78 c 0
 214 69 235 65 256 65 c 0
 287 65 312 72 332 86 c 0
 352 100 367 120 377 145 c 0
 387 170 392 198 393 229 c 1
 392 231 l 1
 392 307 l 1
 393 309 l 1
 392 338 386 364 375 387 c 0
 364 410 350 429 330 442 c 0
 310 455 285 462 256 462 c 0
 233 462 213 459 195 452 c 0
 177 445 162 436 151 425 c 1
 130 342 l 1
 53 342 l 1
 58 459 l 1
 80 484 108 503 142 517 c 0
 176 531 213 538 256 538 c 0
 307 538 350 527 385 504 c 0
 420 481 448 450 466 410 c 0
 484 370 493 325 493 274 c 2
 493 254 l 2
 493 203 484 158 466 118 c 0
 448 78 421 47 386 24 c 0
 351 1 307 -10 256 -10 c 0
EndSplineSet
EndChar

StartChar: zy
Encoding: 41 60821 53
Width: 594
GlyphClass: 2
Flags: W
HStem: -203 62<21 58.5 234 276> -10 75<238.974 384.185> 462 76<251.345 384.159>
VStem: 96 96<-127 47 102.957 388.025> 447 96<138.092 385.094>
AnchorPoint: "Top" 312 658 basechar 0
AnchorPoint: "Bottom" 371 0 basechar 0
LayerCount: 2
Fore
SplineSet
192 -127 m 5
 276 -141 l 5
 276 -203 l 5
 21 -203 l 5
 21 -141 l 5
 96 -127 l 5
 95 282 l 2
 95 336 105 382 124 420 c 0
 143 458 169 488 202 508 c 0
 235 528 273 538 314 538 c 0
 363 538 405 526 439 503 c 0
 473 480 498 447 516 404 c 0
 534 361 543 311 543 254 c 2
 543 244 l 2
 543 193 535 148 519 110 c 0
 503 72 480 43 450 22 c 0
 420 1 383 -10 340 -10 c 0
 309 -10 281 -6 256 4 c 0
 231 14 209 28 192 47 c 1
 192 -127 l 5
310 65 m 0
 355 65 389 82 412 115 c 0
 435 148 447 191 447 244 c 2
 447 254 l 2
 447 295 442 332 433 363 c 0
 424 394 410 419 390 436 c 0
 370 453 345 462 314 462 c 0
 287 462 264 453 246 436 c 0
 228 419 215 396 206 368 c 0
 197 340 192 312 192 281 c 2
 192 133 l 1
 204 111 220 94 239 82 c 0
 258 70 282 65 310 65 c 0
EndSplineSet
EndChar

StartChar: jy
Encoding: 42 60822 54
Width: 642
GlyphClass: 2
Flags: W
HStem: -203 62<37 74.5 250 292> -10 75<245.865 394.586> 0 62<566.923 610> 453 75<68.9231 112> 466 62<32 75.0769 354 397.077>
VStem: 112 96<-127 23 104.739 453> 434 96<101.705 453>
AnchorPoint: "Top" 304 658 basechar 0
AnchorPoint: "Bottom" 348 0 basechar 0
LayerCount: 2
Fore
SplineSet
208 -127 m 1xc6
 292 -141 l 1
 292 -203 l 1
 37 -203 l 1
 37 -141 l 1
 112 -127 l 1
 112 453 l 1xd6
 32 466 l 1
 32 528 l 1x8e
 112 528 l 1x96
 208 528 l 1x8e
 208 225 l 2
 208 164 216 122 234 99 c 0
 252 76 278 65 311 65 c 0
 343 65 369 71 389 83 c 0
 409 95 424 112 434 135 c 1
 434 453 l 1xd6
 354 466 l 1
 354 528 l 1
 530 528 l 1
 530 75 l 1
 610 62 l 1
 610 0 l 1
 444 0 l 1xae
 439 53 l 1
 425 32 407 17 386 6 c 0
 365 -5 342 -10 315 -10 c 0
 292 -10 272 -7 254 -2 c 0
 236 3 221 12 208 23 c 1
 208 -127 l 1xc6
EndSplineSet
EndChar

StartChar: ny
Encoding: 43 60823 55
Width: 503
GlyphClass: 2
Flags: W
HStem: -10 72<168.395 363.978> 454 74<134 331>
VStem: 49 73<365 416.917> 51 97<82.6309 178.827> 383 73<129.444 159>
AnchorPoint: "Top" 258 656.658 basechar 0
AnchorPoint: "Bottom" 255 0 basechar 0
LayerCount: 2
Fore
SplineSet
51 137 m 1xd8
 52.2607421875 222 272.609756098 340 331 454 c 1
 134 454 l 1
 122 365 l 1
 49 365 l 1
 49 528 l 1xe8
 450 528 l 1
 450 463 l 1
 358.053435115 298 148 216.0234375 148 130 c 3
 148 74.498046875 192.935052287 62 257 62 c 0
 277 62 295.5 63.6669921875 312.5 67 c 0
 329.5 70.3330078125 347 75.6669921875 365 83 c 1
 383 159 l 1
 456 159 l 1
 455 34 l 1
 420.333007812 18.6669921875 387.5 7.5 356.5 0.5 c 0
 325.5 -6.5 292.333007812 -10 257 -10 c 0
 137.49564823 -10 51 29.884765625 51 137 c 1xd8
EndSplineSet
EndChar

StartChar: bahebu
Encoding: 44 60824 56
Width: 0
VWidth: 0
GlyphClass: 4
Flags: HW
HStem: -194 124<-309.03 -214.583>
VStem: -323 123<-179.661 -84.3391>
AnchorPoint: "Bottom" -262 0 mark 0
LayerCount: 2
Fore
SplineSet
-323 -132 m 4
 -323 -123 -322 -116 -319 -108 c 4
 -316 -100 -311 -94 -306 -88 c 4
 -301 -82 -294 -78 -286 -75 c 4
 -278 -72 -271 -70 -262 -70 c 260
 -253 -70 -246 -72 -238 -75 c 4
 -230 -78 -224 -82 -218 -88 c 4
 -212 -94 -208 -100 -205 -108 c 4
 -202 -116 -200 -123 -200 -132 c 4
 -200 -141 -202 -149 -205 -156 c 4
 -208 -163 -212 -170 -218 -176 c 4
 -224 -182 -230 -186 -238 -189 c 4
 -246 -192 -253 -194 -262 -194 c 260
 -271 -194 -278 -192 -286 -189 c 4
 -294 -186 -301 -182 -306 -176 c 4
 -311 -170 -316 -163 -319 -156 c 4
 -322 -149 -323 -141 -323 -132 c 4
EndSplineSet
EndChar

StartChar: smajibu
Encoding: 45 60825 57
Width: 416
VWidth: 988
GlyphClass: 2
Flags: HW
HStem: 224 74<70 343>
VStem: 70 273<224 298>
LayerCount: 2
Fore
SplineSet
70 298 m 1
 343 298 l 1
 343 224 l 1
 70 224 l 1
 70 298 l 1
EndSplineSet
Substitution2: "Single Substitution lookup 60 subtable" smajibu.fina
Substitution2: "Single Substitution lookup 59 subtable" smajibu.fina
Substitution2: "Single Substitution lookup 58 subtable" smajibu.fina
Substitution2: "Single Substitution lookup 56 subtable" smajibu.medi
Substitution2: "Single Substitution lookup 55 subtable" smajibu.medi
Substitution2: "Single Substitution lookup 54 subtable" smajibu.medi
Substitution2: "Single Substitution lookup 53 subtable" smajibu.medi
Substitution2: "Single Substitution lookup 52 subtable" smajibu.medi
Substitution2: "Single Substitution lookup 51 subtable" smajibu.medi
Substitution2: "Single Substitution lookup 49 subtable" smajibu.init
Substitution2: "Single Substitution lookup 48 subtable" smajibu.init
Substitution2: "Single Substitution lookup 47 subtable" smajibu.init
EndChar

StartChar: tcenabu
Encoding: 47 60827 59
Width: 0
VWidth: 988
GlyphClass: 4
Flags: HW
HStem: -169 74<-528 2>
AnchorPoint: "Bottom" -263 0 mark 0
LayerCount: 2
Fore
SplineSet
-528 -95 m 1
 2 -95 l 1
 2 -169 l 1
 -528 -169 l 1
 -528 -95 l 1
EndSplineSet
EndChar

StartChar: abu
Encoding: 52 60832 64
Width: 0
VWidth: 988
GlyphClass: 4
Flags: W
HStem: 602 234<-22.9126 23.791>
VStem: -33 67<644.5 836>
AnchorPoint: "Top" 0 657 mark 0
LayerCount: 2
Fore
SplineSet
34 836 m 5
 34 711 l 5
 26 635 l 6
 25 625 22 617 17 610 c 4
 14 604 8 602 0 602 c 4
 -7 602 -12 604 -16 610 c 4
 -21 616 -24 625 -25 635 c 6
 -33 711 l 5
 -33 836 l 5
 34 836 l 5
EndSplineSet
MultipleSubs2: "Multiple Substitution lookup 62 subtable" denpabu abu
EndChar

StartChar: ebu
Encoding: 53 60833 65
Width: 0
GlyphClass: 4
Flags: W
HStem: 661 71<-88 94>
VStem: -88 182<661 732>
AnchorPoint: "Top" 0 657 mark 0
LayerCount: 2
Fore
SplineSet
-88 661 m 5
 -88 732 l 5
 94 732 l 5
 94 661 l 5
 -88 661 l 5
EndSplineSet
MultipleSubs2: "Multiple Substitution lookup 63 subtable" denpabu ebu
EndChar

StartChar: ibu
Encoding: 54 60834 66
Width: 0
GlyphClass: 4
Flags: W
HStem: 627 99<-50 46>
VStem: -50 96<627 726>
AnchorPoint: "Top" 0 657 mark 0
LayerCount: 2
Fore
SplineSet
-50 627 m 5
 -50 726 l 5
 46 726 l 5
 46 627 l 5
 -50 627 l 5
EndSplineSet
MultipleSubs2: "Multiple Substitution lookup 64 subtable" denpabu ibu
Substitution2: "Single Substitution lookup 33 subtable" iy
Substitution2: "Single Substitution lookup 32 subtable" iy
Substitution2: "Single Substitution lookup 31 subtable" iy
Substitution2: "Single Substitution lookup 30 subtable" iy
Substitution2: "Single Substitution lookup 29 subtable" iy
Substitution2: "Single Substitution lookup 28 subtable" iy
Substitution2: "Single Substitution lookup 27 subtable" iy
Substitution2: "Single Substitution lookup 26 subtable" iy
Substitution2: "Single Substitution lookup 25 subtable" iy
Substitution2: "Single Substitution lookup 24 subtable" iy
Substitution2: "Single Substitution lookup 13 subtable" iy
Substitution2: "Single Substitution lookup 12 subtable" iy
Substitution2: "Single Substitution lookup 11 subtable" iy
Substitution2: "Single Substitution lookup 10 subtable" iy
Substitution2: "Single Substitution lookup 9 subtable" iy
Substitution2: "Single Substitution lookup 8 subtable" iy
Substitution2: "Single Substitution lookup 7 subtable" iy
Substitution2: "Single Substitution lookup 6 subtable" iy
Substitution2: "Single Substitution lookup 5 subtable" iy
Substitution2: "Single Substitution lookup 4 subtable" iy
EndChar

StartChar: obu
Encoding: 55 60835 67
Width: 0
GlyphClass: 4
Flags: W
HStem: 640 70<5.58763 90.7324> 688 71<-90.3601 -4.99003> 744 20G<102 155>
VStem: -153 52<644 676.683> 102 53<722.269 750>
AnchorPoint: "Top" 0 657 mark 0
LayerCount: 2
Fore
SplineSet
-52 688 m 0x58
 -81.3994140625 688 -101 661.48828125 -101 632 c 1
 -153 644 l 1
 -153 703.435546875 -110.499023438 759 -52 759 c 0x58
 -1.6767578125 759 5.7080078125 710 53 710 c 0
 79.748046875 710 102 736.552734375 102 764 c 1
 155 750 l 1
 155 688.528320312 114.180664062 640 53 640 c 0xb8
 -0.427734375 640 -6.2412109375 688 -52 688 c 0x58
EndSplineSet
MultipleSubs2: "Multiple Substitution lookup 65 subtable" denpabu obu
EndChar

StartChar: ubu
Encoding: 56 60836 68
Width: 0
GlyphClass: 4
Flags: W
HStem: 641 62<-57.5817 56.8691>
VStem: -151 74<725.706 779> 78 74<725.706 779>
AnchorPoint: "Top" 0 657 mark 0
LayerCount: 2
Fore
SplineSet
0 641 m 260
 -47 641 -84 654 -111 680 c 4
 -138 706 -151 738 -151 779 c 5
 -150 782 l 5
 -77 782 l 5
 -77 759 -70 740 -58 725 c 4
 -46 710 -27 703 0 703 c 4
 26 703 45 710 58 725 c 4
 71 740 78 759 78 782 c 5
 151 782 l 5
 152 779 l 5
 152 738 139 706 112 680 c 4
 85 654 47 641 0 641 c 260
EndSplineSet
MultipleSubs2: "Multiple Substitution lookup 66 subtable" denpabu ubu
Substitution2: "Single Substitution lookup 43 subtable" uy
Substitution2: "Single Substitution lookup 42 subtable" uy
Substitution2: "Single Substitution lookup 41 subtable" uy
Substitution2: "Single Substitution lookup 40 subtable" uy
Substitution2: "Single Substitution lookup 39 subtable" uy
Substitution2: "Single Substitution lookup 38 subtable" uy
Substitution2: "Single Substitution lookup 37 subtable" uy
Substitution2: "Single Substitution lookup 36 subtable" uy
Substitution2: "Single Substitution lookup 35 subtable" uy
Substitution2: "Single Substitution lookup 34 subtable" uy
Substitution2: "Single Substitution lookup 23 subtable" uy
Substitution2: "Single Substitution lookup 22 subtable" uy
Substitution2: "Single Substitution lookup 21 subtable" uy
Substitution2: "Single Substitution lookup 20 subtable" uy
Substitution2: "Single Substitution lookup 19 subtable" uy
Substitution2: "Single Substitution lookup 18 subtable" uy
Substitution2: "Single Substitution lookup 17 subtable" uy
Substitution2: "Single Substitution lookup 16 subtable" uy
Substitution2: "Single Substitution lookup 15 subtable" uy
Substitution2: "Single Substitution lookup 14 subtable" uy
EndChar

StartChar: ybu
Encoding: 57 60837 69
Width: 0
GlyphClass: 4
Flags: W
HStem: 603 44<-39.6542 36.8094> 750 45<-39.6542 39.4149>
VStem: -102 50<659.509 737.674> 49 50<658.483 740.831>
AnchorPoint: "Top" 0 657 mark 0
LayerCount: 2
Fore
SplineSet
-1 603 m 260
 -29 603 -52 611 -72 629 c 4
 -92 647 -102 670 -102 698 c 4
 -102 725 -92 748 -72 767 c 4
 -52 786 -29 795 -1 795 c 260
 27 795 51 786 70 767 c 4
 89 748 99 725 99 698 c 4
 99 670 89 647 70 629 c 4
 51 611 27 603 -1 603 c 260
-1 647 m 260
 13 647 24 651 34 661 c 4
 44 671 49 683 49 698 c 260
 49 713 44 725 34 735 c 4
 24 745 13 750 -1 750 c 260
 -15 750 -27 745 -37 735 c 4
 -47 725 -52 713 -52 698 c 4
 -52 684 -47 672 -37 662 c 4
 -27 652 -15 647 -1 647 c 260
EndSplineSet
MultipleSubs2: "Multiple Substitution lookup 67 subtable" denpabu ybu
EndChar

StartChar: aibu
Encoding: 58 60838 70
Width: 0
VWidth: 0
GlyphClass: 4
Flags: W
HStem: 589 39<-42 4.33428> 758 38<14.418 61>
VStem: -44 57<701.222 754.463> 6 58<631.127 687.254>
AnchorPoint: "Top" 0 657 mark 0
LayerCount: 2
Fore
SplineSet
13 731 m 0xe0
 13 725 16 719 21 714 c 0
 22 713 28 707 41 696 c 0
 47 690 52 683 57 676 c 0
 62 669 64 661 64 652 c 0
 64 643 61 635 56 627 c 0
 39 602 7 589 -42 589 c 1
 -42 628 l 1
 -10 628 6 638 6 655 c 0xd0
 6 660 4 666 -1 672 c 0
 -6 678 -12 684 -19 690 c 0
 -26 696 -32 703 -37 710 c 0
 -42 717 -44 725 -44 734 c 0
 -44 743 -42 751 -37 759 c 0
 -21 784 12 796 61 796 c 1
 61 758 l 1
 29 757 13 748 13 731 c 0xe0
EndSplineSet
MultipleSubs2: "Multiple Substitution lookup 68 subtable" denpabu aibu
Ligature2: "zlmVV subtable" abu ibu
LCarets2: 1 0
EndChar

StartChar: eibu
Encoding: 59 60839 71
Width: 0
GlyphClass: 4
Flags: W
HStem: 720 62<-55.8691 58.5817>
VStem: -150 73<644 697.294> 78 73<644 697.294>
AnchorPoint: "Top" 0 657 mark 0
LayerCount: 2
Fore
SplineSet
1 782 m 256
 48 782 85 769 112 743 c 0
 139 717 152 685 152 644 c 1
 151 641 l 1
 78 641 l 1
 78 664 71 683 59 698 c 0
 47 713 28 720 1 720 c 0
 -25 720 -44 713 -57 698 c 0
 -70 683 -77 664 -77 641 c 1
 -150 641 l 1
 -151 644 l 1
 -151 685 -138 717 -111 743 c 0
 -84 769 -46 782 1 782 c 256
EndSplineSet
MultipleSubs2: "Multiple Substitution lookup 69 subtable" denpabu eibu
Ligature2: "zlmVV subtable" ebu ibu
LCarets2: 1 0
EndChar

StartChar: oibu
Encoding: 60 60840 72
Width: 0
VWidth: 988
GlyphClass: 4
Flags: W
HStem: 598 201
VStem: -117 49<600 643.605> 61 39<656.19 703>
AnchorPoint: "Top" 0 657 mark 0
LayerCount: 2
Fore
SplineSet
-49 683 m 5
 -18 713 6 664 34 656 c 4
 54 651 60 681 61 703 c 5
 100 703 l 5
 99 660 88 623 62 606 c 4
 54 601 46 598 37 598 c 4
 18 598 4 612 -7 621 c 4
 -16 629 -29 644 -42 644 c 4
 -59 644 -68 629 -68 600 c 5
 -117 600 l 5
 -118 663 -72 746 -32 799 c 5
 7 770 l 5
 -14 741 -36 705 -49 683 c 5
EndSplineSet
MultipleSubs2: "Multiple Substitution lookup 70 subtable" denpabu oibu
Ligature2: "zlmVV subtable" obu ibu
LCarets2: 1 0
EndChar

StartChar: aubu
Encoding: 61 60841 73
Width: 0
VWidth: 988
GlyphClass: 4
Flags: W
HStem: 670 110<-39.529 8.47824>
VStem: -55 112<686.518 759.388>
AnchorPoint: "Top" 0 658 mark 0
LayerCount: 2
Fore
SplineSet
-36 575 m 2
 -39 578 -41 582 -41 587 c 0
 -41 589 -40 590 -39 592 c 0
 -38 594 -37 596 -35 598 c 0
 -32 601 -29 604 -25 609 c 0
 -21 614 -16 620 -12 626 c 0
 -8 632 -4 638 0 646 c 0
 4 654 7 662 9 671 c 1
 7 671 6 670 4 670 c 0
 2 670 1 670 -1 670 c 0
 -17 670 -30 675 -40 686 c 0
 -50 697 -55 711 -55 727 c 0
 -55 742 -50 755 -40 765 c 0
 -30 775 -17 780 0 780 c 0
 19 780 32 773 42 760 c 0
 52 747 57 730 57 709 c 0
 57 683 50 658 36 633 c 0
 22 608 2 586 -23 564 c 1
 -36 575 l 2
EndSplineSet
MultipleSubs2: "Multiple Substitution lookup 71 subtable" denpabu aubu
Ligature2: "zlmVV subtable" abu ubu
LCarets2: 1 0
EndChar

StartChar: iy
Encoding: 62 60842 74
Width: 588
GlyphClass: 2
Flags: W
HStem: 0 62<13 68 178.778 234 353 405.889 520 574> 508 20G<239.2 340.192>
AnchorPoint: "Top" 291 657 basechar 0
AnchorPoint: "Bottom" 291 0 basechar 0
LayerCount: 2
Fore
SplineSet
332 528 m 1
 520 69 l 1
 574 62 l 1
 574 0 l 1
 353 0 l 1
 353 62 l 1
 421 71 l 1
 304 372 l 1
 291 415 l 1
 288 415 l 1
 272 372 l 1
 163 71 l 1
 234 62 l 1
 234 0 l 1
 13 0 l 1
 13 62 l 1
 68 69 l 1
 247 528 l 1
 332 528 l 1
EndSplineSet
EndChar

StartChar: uy
Encoding: 63 60843 75
Width: 588
GlyphClass: 2
Flags: HW
HStem: 0 21G<246.808 347.8> 466 62<13 67 181.111 234 353 408.222 519 574>
AnchorPoint: "Bottom" 256 0 basechar 0
AnchorPoint: "Top" 288 659 basechar 0
LayerCount: 2
Fore
SplineSet
255 0 m 5
 67 459 l 5
 13 466 l 5
 13 528 l 5
 234 528 l 5
 234 466 l 5
 166 457 l 5
 283 156 l 5
 296 113 l 5
 299 113 l 5
 315 156 l 5
 424 457 l 5
 353 466 l 5
 353 528 l 5
 574 528 l 5
 574 466 l 5
 519 459 l 5
 340 0 l 5
 255 0 l 5
EndSplineSet
EndChar

StartChar: uniEDAC
Encoding: 272 60844 76
Width: 446
VWidth: 988
GlyphClass: 2
Flags: HW
HStem: 0 69<132 406> 730 20G<188.958 277>
VStem: 188 89<212.256 750>
AnchorPoint: "Top" 230 659 basechar 0
AnchorPoint: "Bottom" 228 0 basechar 0
LayerCount: 2
Fore
SplineSet
132 69 m 0
 406 69 l 1
 406 0 l 1
 29 0 l 1
 29 37 l 2
 29 48 30 54 32 55 c 0
 136 115 188 219 188 278 c 2
 189 750 l 0
 277 750 l 1
 277 324 l 2
 277 257 242 140 174 83 c 0
 132 69 l 0
EndSplineSet
EndChar

StartChar: seplimeabu
Encoding: 68 60848 80
Width: 524
GlyphClass: 3
Flags: W
HStem: 0 62<35 78.0769 247.923 291> 392 136<404 466> 452 76<211 397> 466 62<35 78.0769>
VStem: 115 96<75 452> 404 62<392 452>
AnchorPoint: "Bottom" 305 0 basechar 0
LayerCount: 2
Fore
SplineSet
35 0 m 5xac
 35 62 l 5
 115 75 l 5
 115 453 l 5
 35 466 l 5
 35 528 l 5x9c
 466 528 l 5
 466 392 l 5
 404 392 l 5xcc
 397 452 l 5
 211 452 l 5
 211 75 l 5
 291 62 l 5
 291 0 l 5
 35 0 l 5xac
EndSplineSet
Ligature2: "zlmSF subtable" slakabu seplimeabu
LCarets2: 1 0
EndChar

StartChar: seplimeebu
Encoding: 69 60849 81
Width: 461
GlyphClass: 3
Flags: W
HStem: 0 62<40 82.5385 251.923 295> 240 75<215 413> 466 62<40 79.5 255 295>
VStem: 119 96<75 240 315 452>
AnchorPoint: "Bottom" 307 0 basechar 0
LayerCount: 2
Fore
SplineSet
40 0 m 1
 40 62 l 1
 119 75 l 1
 119 240 l 1
 119 315 l 1
 119 452 l 1
 40 466 l 1
 40 528 l 1
 295 528 l 1
 295 466 l 1
 215 452 l 1
 215 315 l 1
 413 315 l 1
 413 240 l 1
 215 240 l 1
 215 75 l 1
 295 62 l 1
 295 0 l 1
 40 0 l 1
EndSplineSet
Ligature2: "zlmSF subtable" slakabu seplimeebu
LCarets2: 1 0
EndChar

StartChar: seplimeibu
Encoding: 70 60850 82
Width: 681
GlyphClass: 3
Flags: W
HStem: 0 62<47 90.0769 259.923 303 379 421.538 591.462 634> 452 76<223 458> 466 62<47 90.0769 591.462 634>
VStem: 127 96<75 452> 458 97<75 452>
AnchorPoint: "Bottom" 285 0 basechar 0
LayerCount: 2
Fore
SplineSet
47 0 m 1xd8
 47 62 l 1
 127 75 l 1
 127 453 l 1
 47 466 l 1
 47 528 l 1
 634 528 l 1
 634 466 l 1xb8
 555 453 l 1
 555 75 l 1
 634 62 l 1
 634 0 l 1
 379 0 l 1
 379 62 l 1
 458 75 l 1
 458 452 l 1
 223 452 l 1
 223 75 l 1
 303 62 l 1
 303 0 l 1
 47 0 l 1xd8
EndSplineSet
Ligature2: "zlmSF subtable" slakabu seplimeibu
LCarets2: 1 0
EndChar

StartChar: seplimeobu
Encoding: 71 60851 83
Width: 524
GlyphClass: 3
Flags: W
HStem: 0 136<35 97> 0 76<104 290> 0 62<422.923 466> 466 62<210 253.077 422.923 466>
VStem: 35 62<76 136> 290 96<76 453>
AnchorPoint: "Bottom" 278 0 basechar 0
LayerCount: 2
Fore
SplineSet
466 528 m 1x5c
 466 466 l 1
 386 453 l 1
 386 75 l 1
 466 62 l 1
 466 0 l 1x3c
 35 0 l 1
 35 136 l 1
 97 136 l 1x9c
 104 76 l 1
 290 76 l 1
 290 453 l 1
 210 466 l 1
 210 528 l 1
 466 528 l 1x5c
EndSplineSet
Ligature2: "zlmSF subtable" slakabu seplimeobu
LCarets2: 1 0
EndChar

StartChar: seplimeubu
Encoding: 72 60852 84
Width: 682
GlyphClass: 3
Flags: W
HStem: 0 75<224 459> 0 62<48 90.5385 591.923 635> 453 75<84.4615 127 224 266.538> 466 62<48 90.5385 260.462 303 379 422.077 591.923 635>
VStem: 127 97<75 453> 459 96<75 453>
AnchorPoint: "Bottom" 286 0 basechar 0
LayerCount: 2
Fore
SplineSet
48 0 m 1x4c
 48 62 l 1x4c
 127 75 l 1
 127 453 l 1xac
 48 466 l 1
 48 528 l 1x1c
 224 528 l 1x2c
 303 528 l 1
 303 466 l 1x1c
 224 453 l 1
 224 75 l 1
 459 75 l 1
 459 453 l 1xac
 379 466 l 1
 379 528 l 1
 635 528 l 1
 635 466 l 1x1c
 555 453 l 1
 555 75 l 1xac
 635 62 l 1
 635 0 l 1
 48 0 l 1x4c
EndSplineSet
Ligature2: "zlmSF subtable" slakabu seplimeubu
LCarets2: 1 0
EndChar

StartChar: seplimeybu
Encoding: 73 60853 85
Width: 334
GlyphClass: 3
Flags: W
HStem: 0 62<40 82.5385 251.923 295> 240 75<21 119 215 315> 466 62<40 79.5 255 295>
VStem: 119 96<75 240 315 452>
AnchorPoint: "Bottom" 277 0 basechar 0
LayerCount: 2
Fore
SplineSet
40 0 m 1
 40 62 l 1
 119 75 l 1
 119 240 l 1
 21 240 l 1
 21 315 l 1
 119 315 l 1
 119 452 l 1
 40 466 l 1
 40 528 l 1
 295 528 l 1
 295 466 l 1
 215 452 l 1
 215 315 l 1
 315 315 l 1
 315 240 l 1
 215 240 l 1
 215 75 l 1
 295 62 l 1
 295 0 l 1
 40 0 l 1
EndSplineSet
Ligature2: "zlmSF subtable" slakabu seplimeybu
LCarets2: 1 0
EndChar

StartChar: seplimeaibu
Encoding: 74 60854 86
Width: 555
GlyphClass: 3
Flags: W
HStem: 0 157<411 493> 0 74<191 403> 0 62<15 58.0769> 371 157<410 493> 453 75<191 403> 466 62<15 55>
VStem: 95 96<75 452> 411 82<84.375 157 371 442.75>
AnchorPoint: "LigaBottom" 287 0 basechar 0
LayerCount: 2
Fore
SplineSet
15 0 m 1x23
 15 62 l 1
 95 75 l 1
 95 452 l 1
 15 466 l 1
 15 528 l 1x27
 493 528 l 1
 493 371 l 1
 410 371 l 1x13
 403 453 l 1
 191 453 l 1
 191 74 l 1
 403 74 l 1x4b
 411 157 l 1
 493 157 l 1
 493 0 l 1x83
 15 0 l 1x23
EndSplineSet
Ligature2: "zlmSFF subtable" slakabu seplimeaibu
Ligature2: "zlmFF subtable" seplimeabu seplimeibu
LCarets2: 1 0
EndChar

StartChar: seplimeeibu
Encoding: 75 60855 87
Width: 499
GlyphClass: 3
Flags: W
HStem: -10 72<143.022 332.621> 464 74<178.804 341.056>
VStem: 51 73<129.444 159> 55 96<343.055 437.406> 359 97<88.1875 189.043> 362 73<367 400.133>
AnchorPoint: "Bottom" 225 0 basechar 0
LayerCount: 2
Fore
SplineSet
250 -10 m 0xd8
 214.666666667 -10 181.5 -6.5 150.5 0.5 c 0
 119.5 7.5 86.6666666667 18.6666666667 52 34 c 1
 51 159 l 1
 124 159 l 1
 142 83 l 1
 160 75.6666666667 177.5 70.3333333333 194.5 67 c 0
 211.5 63.6666666667 230 62 250 62 c 0
 289.333333333 62 317.333333333 69.5 334 84.5 c 0
 350.666666667 99.5 359 118 359 140 c 0xe8
 359 160.666666667 350.5 178.333333333 333.5 193 c 0
 316.5 207.666666667 285.666666667 220 241 230 c 0
 177 244.666666667 130 264.333333333 100 289 c 0
 70 313.666666667 55 346.333333333 55 387 c 0
 55 415.666666667 63.1666666667 441.333333333 79.5 464 c 0
 95.8333333333 486.666666667 118.833333333 504.666666667 148.5 518 c 0
 178.166666667 531.333333333 212.666666667 538 252 538 c 0
 292 538 326.333333333 533.5 355 524.5 c 0
 383.666666667 515.5 408.666666667 503.333333333 430 488 c 1
 435 367 l 1
 362 367 l 1xd4
 347 438 l 1
 335.666666667 446.666666667 322.166666667 453.166666667 306.5 457.5 c 0
 290.833333333 461.833333333 272.666666667 464 252 464 c 0
 222 464 197.666666667 457 179 443 c 0
 160.333333333 429 151 411.333333333 151 390 c 0
 151 377.333333333 153.666666667 366.5 159 357.5 c 0
 164.333333333 348.5 174.666666667 340.333333333 190 333 c 0
 205.333333333 325.666666667 228 318.666666667 258 312 c 0
 331.333333333 294.666666667 382.666666667 272.666666667 412 246 c 0
 441.333333333 219.333333333 456 186.333333333 456 147 c 0
 456 102.333333333 439.333333333 65 406 35 c 0
 372.666666667 5 320.666666667 -10 250 -10 c 0xd8
EndSplineSet
Ligature2: "zlmSFF subtable" slakabu seplimeeibu
Ligature2: "zlmFF subtable" seplimeebu seplimeibu
LCarets2: 1 0
EndChar

StartChar: seplimeoibu
Encoding: 76 60856 88
Width: 555
GlyphClass: 3
Flags: W
HStem: 0 157<15 97> 0 74<105 317> 0 62<449.923 493> 371 157<15 98> 453 75<105 317> 466 62<453 493>
VStem: 15 82<84.375 157 371 442.75> 317 96<75 452>
AnchorPoint: "Bottom" 283 0 basechar 0
LayerCount: 2
Fore
SplineSet
493 0 m 1x27
 15 0 l 1
 15 157 l 1
 97 157 l 1x83
 105 74 l 1
 317 74 l 1
 317 453 l 1
 105 453 l 1x4b
 98 371 l 1
 15 371 l 1
 15 528 l 1x13
 493 528 l 1
 493 466 l 1
 413 452 l 1
 413 75 l 1
 493 62 l 1
 493 0 l 1x27
EndSplineSet
Ligature2: "zlmSFF subtable" slakabu seplimeoibu
Ligature2: "zlmFF subtable" seplimeobu seplimeibu
LCarets2: 1 0
EndChar

StartChar: seplimeaubu
Encoding: 77 60857 89
Width: 587
GlyphClass: 3
Flags: W
HStem: 0 62<21 57.9091 179 236 344 407 533 568> 466 62<30 63.7273 185 237 342 398 511.273 545>
AnchorPoint: "Bottom" 286 -1 basechar 0
LayerCount: 2
Fore
SplineSet
21 0 m 1
 21 62 l 1
 79 73 l 1
 237 267 l 1
 83 455 l 1
 30 466 l 1
 30 528 l 1
 237 528 l 1
 237 466 l 1
 185 460 l 1
 293 326 l 1
 398 461 l 1
 342 466 l 1
 342 528 l 1
 545 528 l 1
 545 466 l 1
 492 455 l 1
 349 269 l 1
 513 73 l 1
 568 62 l 1
 568 0 l 1
 344 0 l 1
 344 62 l 1
 407 67 l 1
 292 208 l 1
 179 67 l 1
 236 62 l 1
 236 0 l 1
 21 0 l 1
EndSplineSet
Ligature2: "zlmSFF subtable" slakabu seplimeaubu
Ligature2: "zlmFF subtable" seplimeabu seplimeubu
LCarets2: 1 0
EndChar

StartChar: uniEDBC
Encoding: 278 60860 92
Width: 446
VWidth: 988
GlyphClass: 2
Flags: HW
HStem: -250 21G<158 246> 431 69<29 302>
VStem: 158 88<-250 260.403>
AnchorPoint: "Top" 208 658 basechar 0
AnchorPoint: "Bottom" 203 0 basechar 0
LayerCount: 2
Fore
SplineSet
302 431 m 0
 29 431 l 1
 29 500 l 1
 406 500 l 1
 406 464 l 2
 406 453 405 446 403 445 c 0
 299 385 246 222 246 222 c 2
 246 -250 l 0
 158 -250 l 1
 158 176 l 2
 158 176 192 360 260 417 c 0
 302 431 l 0
EndSplineSet
EndChar

StartChar: bahebu_bahebu
Encoding: 78 -1 96
Width: 0
VWidth: 0
GlyphClass: 4
Flags: HW
HStem: -194 124<-403.03 -308.583 -226.03 -131.583>
VStem: -417 123<-179.661 -84.3391> -240 123<-179.661 -84.3391>
AnchorPoint: "Bottom" -267 0 mark 0
LayerCount: 2
Fore
SplineSet
-417 -132 m 4
 -417 -123 -416 -116 -413 -108 c 4
 -410 -100 -405 -94 -400 -88 c 4
 -395 -82 -388 -78 -380 -75 c 4
 -372 -72 -365 -70 -356 -70 c 260
 -347 -70 -340 -72 -332 -75 c 4
 -324 -78 -318 -82 -312 -88 c 4
 -306 -94 -302 -100 -299 -108 c 4
 -296 -116 -294 -123 -294 -132 c 4
 -294 -141 -296 -149 -299 -156 c 4
 -302 -163 -306 -170 -312 -176 c 4
 -318 -182 -324 -186 -332 -189 c 4
 -340 -192 -347 -194 -356 -194 c 260
 -365 -194 -372 -192 -380 -189 c 4
 -388 -186 -395 -182 -400 -176 c 4
 -405 -170 -410 -163 -413 -156 c 4
 -416 -149 -417 -141 -417 -132 c 4
-240 -132 m 4
 -240 -123 -239 -116 -236 -108 c 4
 -233 -100 -228 -94 -223 -88 c 4
 -218 -82 -211 -78 -203 -75 c 4
 -195 -72 -188 -70 -179 -70 c 260
 -170 -70 -163 -72 -155 -75 c 4
 -147 -78 -141 -82 -135 -88 c 4
 -129 -94 -125 -100 -122 -108 c 4
 -119 -116 -117 -123 -117 -132 c 4
 -117 -141 -119 -149 -122 -156 c 4
 -125 -163 -129 -170 -135 -176 c 4
 -141 -182 -147 -186 -155 -189 c 4
 -163 -192 -170 -194 -179 -194 c 260
 -188 -194 -195 -192 -203 -189 c 4
 -211 -186 -218 -182 -223 -176 c 4
 -228 -170 -233 -163 -236 -156 c 4
 -239 -149 -240 -141 -240 -132 c 4
EndSplineSet
Ligature2: "zlmBahebu subtable" bahebu bahebu
LCarets2: 1 0
EndChar

StartChar: bahebu_bahebu_bahebu
Encoding: 79 -1 97
Width: 0
VWidth: 0
GlyphClass: 4
Flags: HW
HStem: -313 124<-315.03 -220.583> -189 124<-404.03 -309.583 -227.03 -132.583>
VStem: -418 123<-174.661 -79.3391> -329 123<-298.661 -203.339> -241 123<-174.661 -79.3391>
AnchorPoint: "Bottom" -268 0 mark 0
LayerCount: 2
Fore
SplineSet
-329 -251 m 0x90
 -329 -242 -328 -235 -325 -227 c 0
 -322 -219 -317 -213 -312 -207 c 0
 -307 -201 -300 -197 -292 -194 c 0
 -284 -191 -277 -189 -268 -189 c 256
 -259 -189 -252 -191 -244 -194 c 0
 -236 -197 -230 -201 -224 -207 c 0
 -218 -213 -214 -219 -211 -227 c 0
 -208 -235 -206 -242 -206 -251 c 0
 -206 -260 -208 -268 -211 -275 c 0
 -214 -282 -218 -289 -224 -295 c 0
 -230 -301 -236 -305 -244 -308 c 0
 -252 -311 -259 -313 -268 -313 c 256
 -277 -313 -284 -311 -292 -308 c 0
 -300 -305 -307 -301 -312 -295 c 0
 -317 -289 -322 -282 -325 -275 c 0
 -328 -268 -329 -260 -329 -251 c 0x90
-418 -127 m 0x60
 -418 -118 -417 -111 -414 -103 c 0
 -411 -95 -406 -89 -401 -83 c 0
 -396 -77 -389 -73 -381 -70 c 0
 -373 -67 -366 -65 -357 -65 c 256
 -348 -65 -341 -67 -333 -70 c 0
 -325 -73 -319 -77 -313 -83 c 0
 -307 -89 -303 -95 -300 -103 c 0
 -297 -111 -295 -118 -295 -127 c 0
 -295 -136 -297 -144 -300 -151 c 0
 -303 -158 -307 -165 -313 -171 c 0
 -319 -177 -325 -181 -333 -184 c 0
 -341 -187 -348 -189 -357 -189 c 256
 -366 -189 -373 -187 -381 -184 c 0
 -389 -181 -396 -177 -401 -171 c 0
 -406 -165 -411 -158 -414 -151 c 0
 -417 -144 -418 -136 -418 -127 c 0x60
-241 -127 m 0x48
 -241 -118 -240 -111 -237 -103 c 0
 -234 -95 -229 -89 -224 -83 c 0
 -219 -77 -212 -73 -204 -70 c 0
 -196 -67 -189 -65 -180 -65 c 256
 -171 -65 -164 -67 -156 -70 c 0
 -148 -73 -142 -77 -136 -83 c 0
 -130 -89 -126 -95 -123 -103 c 0
 -120 -111 -118 -118 -118 -127 c 0
 -118 -136 -120 -144 -123 -151 c 0
 -126 -158 -130 -165 -136 -171 c 0
 -142 -177 -148 -181 -156 -184 c 0
 -164 -187 -171 -189 -180 -189 c 256
 -189 -189 -196 -187 -204 -184 c 0
 -212 -181 -219 -177 -224 -171 c 0
 -229 -165 -234 -158 -237 -151 c 0
 -240 -144 -241 -136 -241 -127 c 0x48
EndSplineSet
Ligature2: "zlmBahebu subtable" bahebu bahebu bahebu
LCarets2: 2 0 0
EndChar

StartChar: smajibu.init
Encoding: 48 -1 98
Width: 416
VWidth: 988
GlyphClass: 2
Flags: HW
HStem: 224 74<70 427>
LayerCount: 2
Fore
SplineSet
70 298 m 1
 427 298 l 1
 427 224 l 1
 70 224 l 1
 70 298 l 1
EndSplineSet
EndChar

StartChar: smajibu.medi
Encoding: 49 -1 99
Width: 416
VWidth: 988
GlyphClass: 2
Flags: HW
HStem: 224 74<-10 427>
LayerCount: 2
Fore
SplineSet
-10 298 m 1
 427 298 l 1
 427 224 l 1
 -10 224 l 1
 -10 298 l 1
EndSplineSet
EndChar

StartChar: smajibu.fina
Encoding: 50 -1 100
Width: 416
VWidth: 988
GlyphClass: 2
Flags: HW
HStem: 224 74<-10 343>
LayerCount: 2
Fore
SplineSet
-10 298 m 1
 343 298 l 1
 343 224 l 1
 -10 224 l 1
 -10 298 l 1
EndSplineSet
EndChar

StartChar: denpabu.cas
Encoding: 51 -1 101
Width: 232
VWidth: 988
Flags: HW
HStem: 306 87<27.1897 209.657> 480 20G<304 340>
VStem: 18 322
AnchorPoint: "Top" 70 658 basechar 0
AnchorPoint: "Bottom" 111 0 basechar 0
LayerCount: 2
Fore
SplineSet
306 415 m 1
 293 387 267 360 224 335 c 0
 191 316 151 306 102 306 c 0
 86 306 70 308 56 310 c 0
 42 312 29 315 18 320 c 1
 27 386 l 1
 31 395 38 399 50 399 c 0
 57 399 67 398 80 396 c 0
 93 394 108 393 124 393 c 0
 148 393 169 395 187 400 c 0
 205 405 221 412 236 421 c 0
 250 430 264 441 275 454 c 0
 292 474 302 489 306 500 c 1
 340 481 l 1
 306 415 l 1
EndSplineSet
EndChar

StartChar: yhy.cas
Encoding: 67 -1 109
Width: 299
Flags: WO
HStem: 0 62<14 56.5385 225.923 269> 508 20G<76.8571 189>
VStem: 93 96<75 453>
AnchorPoint: "Top" 133 656 basechar 0
AnchorPoint: "Bottom" 136 0 basechar 0
LayerCount: 2
Fore
SplineSet
14 0 m 1
 14 62 l 1
 93 75 l 1
 93 453 l 1
 74 500 l 1
 84 528 l 1
 189 528 l 1
 189 75 l 1
 269 62 l 1
 269 0 l 1
 14 0 l 1
EndSplineSet
EndChar
